inDegrees=no
num_controls=7
num_derivatives=13
num_iterations=76
num_multipliers=7
num_parameters=0
num_slacks=7
num_states=26
objective=0.454440
objective_accelerations=0.044024
objective_balance=0.000791
objective_effort=0.036235
objective_height=0.367322
objective_ligament=0.006068
solver_duration=875.294992
status=Solve_Succeeded
success=true
DataType=double
version=3
OpenSimVersion=4.5
endheader
time	/jointset/ground_pelvis/pelvis_tilt/value	/jointset/ground_pelvis/pelvis_tx/value	/jointset/ground_pelvis/pelvis_ty/value	/jointset/hip_r/hip_flexion_r/value	/jointset/hip_r/hip_adduction_r/value	/jointset/hip_r/hip_rotation_r/value	/jointset/back/lumbar_extension/value	/jointset/patellofemoral_r/patellar_flexion_r/value	/jointset/knee_r/knee_flexion_r/value	/jointset/knee_r/knee_adduction_r/value	/jointset/knee_r/knee_rotation_r/value	/jointset/ankle_r/ankle_angle_r/value	/jointset/subtalar_r/subtalar_angle_r/value	/jointset/ground_pelvis/pelvis_tilt/speed	/jointset/ground_pelvis/pelvis_tx/speed	/jointset/ground_pelvis/pelvis_ty/speed	/jointset/hip_r/hip_flexion_r/speed	/jointset/hip_r/hip_adduction_r/speed	/jointset/hip_r/hip_rotation_r/speed	/jointset/back/lumbar_extension/speed	/jointset/patellofemoral_r/patellar_flexion_r/speed	/jointset/knee_r/knee_flexion_r/speed	/jointset/knee_r/knee_adduction_r/speed	/jointset/knee_r/knee_rotation_r/speed	/jointset/ankle_r/ankle_angle_r/speed	/jointset/subtalar_r/subtalar_angle_r/speed	/forceset/tau_hip_flexion_r	/forceset/tau_hip_adduction_r	/forceset/tau_hip_rotation_r	/forceset/tau_knee_flexion_r	/forceset/tau_ankle_angle_r	/forceset/tau_subtalar_angle_r	/forceset/tau_lumbar_extension	lambda_cid13_p0	lambda_cid14_p0	lambda_cid14_p1	lambda_cid14_p2	lambda_cid14_p3	lambda_cid14_p4	lambda_cid14_p5	/jointset/ground_pelvis/pelvis_tilt/accel	/jointset/ground_pelvis/pelvis_tx/accel	/jointset/ground_pelvis/pelvis_ty/accel	/jointset/hip_r/hip_flexion_r/accel	/jointset/hip_r/hip_adduction_r/accel	/jointset/hip_r/hip_rotation_r/accel	/jointset/back/lumbar_extension/accel	/jointset/patellofemoral_r/patellar_flexion_r/accel	/jointset/knee_r/knee_flexion_r/accel	/jointset/knee_r/knee_adduction_r/accel	/jointset/knee_r/knee_rotation_r/accel	/jointset/ankle_r/ankle_angle_r/accel	/jointset/subtalar_r/subtalar_angle_r/accel	gamma_cid13_p0	gamma_cid14_p0	gamma_cid14_p1	gamma_cid14_p2	gamma_cid14_p3	gamma_cid14_p4	gamma_cid14_p5
1.5	-0.06725508744305328	0.04110906165841114	0.8251883777816638	0.7634432627934004	-0.2501228444493854	-0.06509333508657052	-0.623906062666405	0.9185210420571623	0.9185210420572949	0.05848646655507875	0.1733078909664341	0.2978214761458728	0.09679779543054584	0.4200130643648127	0.202734769266526	0.464693533360072	-1.871760810874555	0.03792814563315113	-0.4878614151530373	0.7803811325021605	-1.894241013033303	-1.894241013033294	0.1115531831509412	0.009220554112046322	-0.5214686039027868	-0.1144060102579779	-0.1509517325141199	-0.002242646157576674	0.03382038756031818	-0.3078758061299934	0.01048211124927407	-0.01425579918057046	0.2088123106300902	-9.859677091838973	-39.6136905725042	-11.92998253447289	0.9562016165853515	-2.842430727039258	-636.0219946014792	61.09711631085327	0.1253082864164508	0.5371535796912621	-0.4212429753792648	-1.063774875072438	0.1404957735083718	-0.1041160168063961	1.76537839879576	-1.384063931332187	-1.384063931332207	0.6340949076274811	0.004533331284364882	-0.5171843063538001	0.1168476730522914	8.848206665650768e-08	1.598337281653842e-08	-1.179706352603035e-06	2.90959581851919e-07	1.161575870927942e-07	1.433204705493318e-07	-8.021223702584744e-07
1.51	-0.06304928404368741	0.04316310166381714	0.8298133538790797	0.7446744933790045	-0.2497371995988113	-0.06997642377607764	-0.6160149080126001	0.8995114748897293	0.8995114748897021	0.05963531428494862	0.1734009408373718	0.2925813068794149	0.0956586395040894	0.4210688254091727	0.2080541936676596	0.460209913042076	-1.881753320869556	0.03918118830576423	-0.4886402367636952	0.7977780266238306	-1.907449184708583	-1.907449184708568	0.1183078275773311	0.009336604052161116	-0.5265059984450243	-0.1134399826199608	-0.1442940904985089	-0.003761013026358622	0.03309853741177136	-0.3042912787591748	0.01258271668111339	-0.01464144799337057	0.2027216395099752	-10.868258531422	-38.69574602352003	-11.8069332783695	0.7883092340547357	-3.051335048823669	-631.9242408604248	60.9873873922815	0.08389540552045488	0.5264981422316748	-0.4756591800534121	-0.9310214286333286	0.1147585212201195	-0.04721271015145635	1.716079173630151	-1.25572899323272	-1.255728993232021	0.709733794415416	0.007281770322917772	-0.4881006304075094	0.08415714866477203	9.796798793688464e-08	3.183018622098371e-08	-1.059328782026413e-06	4.042800092642165e-07	9.557151196904324e-08	1.42258319555667e-07	-7.199435400395381e-07
1.52	-0.0588352859554562	0.04526976816761553	0.8343907462493098	0.7258129923912555	-0.2493396143201198	-0.07486379017706858	-0.6079519375666238	0.8803765189639354	0.8803765189638917	0.06085442537584636	0.1734935793967304	0.2872925469470877	0.09452867922190732	0.4216520021364965	0.2132600689450014	0.4551767879221301	-1.890307125541374	0.04031623126170173	-0.4887169574525935	0.8147442909366062	-1.919318764688139	-1.919318764688118	0.1256058553745835	0.009138291790183245	-0.5311867370771997	-0.1125668814024187	-0.1376364484830664	-0.005279379895205011	0.03237668726340776	-0.3007067513883883	0.01468332211293491	-0.01502709680627669	0.1966309683897303	-11.87877521265683	-37.7805179848693	-11.68260442854957	0.6182068929901321	-3.271345951907972	-627.8650474470484	60.91812002416104	0.03079142300888369	0.5144437549330977	-0.5311439357692945	-0.7760338104357475	0.1168958301731121	0.036304167545651	1.679252437016799	-1.116345592187281	-1.116345592187319	0.7427715818001615	-0.0583391091342257	-0.4458531243410158	0.09826238895735172	1.057667017462085e-07	4.783119319723178e-08	-9.539724937518315e-07	5.087793667195186e-07	7.640567239765411e-08	1.503139442446195e-07	-6.608067335195923e-07
1.53	-0.05461766382899025	0.04742792710218471	0.8389150668037816	0.7068731290272815	-0.2489311429727303	-0.07974890044799111	-0.5997213002361305	0.8611299190832238	0.8611299190831297	0.06214843226418814	0.1735826589784787	0.281959082110629	0.09340731261477721	0.4218070796635963	0.2183526431832483	0.4495963963074547	-1.897422226787619	0.04137375297183448	-0.4882710262143747	0.8313279759392861	-1.929739109005488	-1.929739109005457	0.1331775178189723	0.008652296608253725	-0.5354127672785515	-0.1116847839481183	-0.1313564598359592	-0.006660010769897286	0.0316225309317297	-0.2966393544395535	0.01620888893513462	-0.01542691962451137	0.1908301613491017	-12.88808497319911	-37.0548328530184	-11.5954019731734	0.4514921164109297	-3.403194984046874	-623.8797956333224	60.74986141408701	-0.001928165065947335	0.5038129002432395	-0.5850902629243966	-0.6427406038241138	0.09957126092439068	0.05399721008668348	1.639646648517458	-0.9655864804374115	-0.9655864804359438	0.7615579496795605	-0.04742277156774102	-0.396934123944078	0.08638069873916711	1.117727576175385e-07	6.399603084352028e-08	-8.645763179231663e-07	6.039063373455133e-07	5.874883310064937e-08	1.680572055963527e-07	-6.261520771798237e-07
1.54	-0.05040044974377064	0.04963644150753051	0.8433808627443871	0.6878694161864114	-0.2485122182243642	-0.08462849948489537	-0.5913264820322854	0.8417869742334817	0.8417869742334372	0.0635175946516081	0.1736661399987088	0.2765861657409775	0.09229540643720154	0.4215703938856209	0.2233311631003221	0.4434718651482116	-1.903077020918121	0.04240691146164161	-0.4876147106510983	0.8475804656069265	-1.938587758479993	-1.938587758479951	0.1406369552202516	0.008018579472494829	-0.5390770437163643	-0.1106747954909165	-0.1250764711889868	-0.008040641644658311	0.0308683746005677	-0.2925719574907467	0.01773445575730885	-0.01582674244286563	0.1850293543083771	-13.89223792469245	-36.3322712552942	-11.50693375856142	0.2825042772127054	-3.546529938150545	-619.94034562773	60.62734770906282	-0.04756123800656401	0.4916328906986468	-0.6399718446828877	-0.4839723872874059	0.1120231861078304	0.0783810325572773	1.613013370008747	-0.8020066236184771	-0.8020066236184673	0.7203265731783899	-0.08788349990016016	-0.3335023716328934	0.1238405895376799	1.147788666031588e-07	7.192024022651341e-08	-8.589927895294031e-07	6.440329123116645e-07	5.313559097626085e-08	1.889099400348802e-07	-6.445729193294073e-07
1.55	-0.04618776266328205	0.05189402653746903	0.8477827690447753	0.6688167808924186	-0.2480826410620302	-0.0895029986316293	-0.5827713085944027	0.8223632364945125	0.822363236494472	0.06495822100941047	0.1737436688489901	0.2711793531758867	0.09119492896022205	0.4208771303484329	0.2281514317993887	0.436824476244801	-1.907160258658383	0.04355471181859334	-0.4874771151345714	0.8633514980769129	-1.945902001157898	-1.945902001157841	0.1472254080917393	0.007567362732396843	-0.5421930315117188	-0.1093225504313314	-0.1182321626498541	-0.009615031597934131	0.03007795907743423	-0.2891499986107783	0.0198389528569053	-0.01633570940218839	0.1787241232255144	-14.88839445423307	-35.44300916588993	-11.44777884514374	0.1308686312655603	-3.673454974713914	-616.0971164252184	60.55993847344942	-0.093686877308215	0.4720753947047798	-0.6898148318638451	-0.3270240865763157	0.1231022247711478	-0.047198802997475	1.543739601640528	-0.6574876817091189	-0.6574876817070279	0.5885423817017601	-0.01162184236998917	-0.2867517615365358	0.1555532088463266	1.143285150465486e-07	7.034981269744935e-08	-9.499760070932387e-07	6.207894661914777e-07	6.139866733336415e-08	2.133453282473228e-07	-7.241459662601976e-07
1.56	-0.04198470381130413	0.05419878456143648	0.8521156629723924	0.6497320082971846	-0.2476401971432964	-0.09438185134601275	-0.5740615065485891	0.8028740854103885	0.8028740854103721	0.06645681944351665	0.1738191093155696	0.2657441597772298	0.09011090128277141	0.419644748181886	0.2327657619061077	0.4296693905933729	-1.909504481165933	0.04498026274682985	-0.4884854241859493	0.8785061871927841	-1.95167042750912	-1.951670427509048	0.1522313704659526	0.007600902740079262	-0.5447532104290544	-0.1073848355846558	-0.1113878541107695	-0.01118942155116421	0.02928754355390399	-0.2857280397308344	0.02194344995651532	-0.01684467636142906	0.1724188921426156	-15.8744150857107	-34.55602359067871	-11.38709382193976	-0.02321309507617621	-3.812610879210498	-612.2872374200831	60.53938072023684	-0.1553849638787541	0.4504451722293002	-0.7415111942864204	-0.136169340744828	0.1675733003647289	-0.1507998810235638	1.489744699185497	-0.4928433582817375	-0.4928433582817371	0.4038284737236528	0.009067849655885134	-0.2223405960288047	0.2409345469558168	1.212876213265861e-07	7.398100331631927e-08	-1.040486442324681e-06	6.48834010385136e-07	6.578024990584013e-08	2.386490407565411e-07	-7.890072874240275e-07
1.57	-0.03779637507174767	0.05654861731678985	0.8563745006174879	0.6306322604911764	-0.2471829158017509	-0.09927262213349052	-0.5652035944710181	0.7833353964259276	0.7833353964259128	0.06800179871903368	0.1738958860154185	0.2602860838488428	0.0890478517973677	0.417950249974366	0.2371618820085667	0.4220143478178331	-1.910159954906381	0.04644402410991792	-0.4894745039153074	0.8929479985551577	-1.955758538565839	-1.955758538565831	0.1568919945966183	0.007667371284695843	-0.5467704136529874	-0.1052518507959985	-0.1045957845954057	-0.01291079761225095	0.02854957554457632	-0.2822241356212458	0.02390529223974708	-0.01742222997062463	0.1661161775564728	-16.84863227810947	-33.72275290694404	-11.36981306744485	-0.1655633454530221	-3.885892368022099	-608.5061931032133	60.4363747451759	-0.1870886757245597	0.4283723642102539	-0.7900133640892161	0.0125419397070443	0.1309959161186218	-0.04363373141628931	1.402164889891379	-0.3204997261750306	-0.3204997261848599	0.5161545687774941	-0.00749466835413141	-0.1776418147761272	0.1953697963700666	1.375085499024332e-07	8.411421662010657e-08	-1.130405899640632e-06	7.409885424711e-07	6.530996524753198e-08	2.65038158636729e-07	-8.354789513791571e-07
1.58	-0.03362711259956681	0.0589412466601584	0.8605542853258492	0.6115345136138499	-0.2467119531742306	-0.1041674180607422	-0.5562051111727953	0.7637650853815429	0.7637650853815328	0.06959717927320302	0.1739707411956065	0.2548105895623718	0.08800531003015861	0.4158314947053847	0.2413250795091467	0.413858803246008	-1.90910429543081	0.04771651994649217	-0.4892904521456247	0.9066204313226642	-1.95799483949489	-1.957994839494947	0.1623116261688674	0.00721659882056282	-0.5482368820449344	-0.1032832919453694	-0.09780371508001966	-0.01463217367324849	0.02781160753469293	-0.2787202315116638	0.02586713452300721	-0.01799978357966913	0.1598134629703447	-17.80963684387065	-32.89007685227802	-11.350678858184	-0.3104470818984086	-3.973592808989499	-604.7341768261391	60.38000849691498	-0.2402363761713977	0.403860651853678	-0.8416115535435035	0.2060573024593224	0.1293201950619402	0.083826418784732	1.335868980211942	-0.1224813327480931	-0.1224813327480932	0.5556299620404808	-0.09438035209406465	-0.1121936296313572	0.2080493593502173	1.472956900952998e-07	9.402043267343566e-08	-1.196675831183424e-06	8.044526228130665e-07	6.297718089914335e-08	3.026253272256191e-07	-8.864504721505734e-07
